REM DIRINDEX 1\2,1\3,1\4,1\5
REM DIRNAME cjc004,folder01,folder02,folder03,folder04
TITLE ""
FILE "1Q_t_0383-0392.mp3" MP3
  TRACK 01 AUDIO
    TITLE "3:cjc004_2050"
    INDEX 01 00:00:00
  TRACK 02 AUDIO
    TITLE "0:"
    INDEX 01 00:01:05
  TRACK 03 AUDIO
    TITLE "4:cjc004_2051"
    INDEX 01 00:01:32
  TRACK 04 AUDIO
    TITLE "0:"
    INDEX 01 00:02:36
  TRACK 05 AUDIO
    TITLE "5:cjc004_2052"
    INDEX 01 00:02:61
  TRACK 06 AUDIO
    TITLE "0:"
    INDEX 01 00:05:69
  TRACK 07 AUDIO
    TITLE "3:cjc004_2053"
    INDEX 01 00:06:53
  TRACK 08 AUDIO
    TITLE "0:"
    INDEX 01 00:07:54
  TRACK 09 AUDIO
    TITLE "4:cjc004_2054"
    INDEX 01 00:08:01
  TRACK 10 AUDIO
    TITLE "0:"
    INDEX 01 00:09:20
  TRACK 11 AUDIO
    TITLE "5:cjc004_2055"
    INDEX 01 00:09:44
  TRACK 12 AUDIO
    TITLE "0:"
    INDEX 01 00:14:27
  TRACK 13 AUDIO
    TITLE "3:cjc004_2056"
    INDEX 01 00:15:03
  TRACK 14 AUDIO
    TITLE "0:"
    INDEX 01 00:16:36
  TRACK 15 AUDIO
    TITLE "4:cjc004_2057"
    INDEX 01 00:16:63
  TRACK 16 AUDIO
    TITLE "0:"
    INDEX 01 00:18:05
  TRACK 17 AUDIO
    TITLE "5:cjc004_2058"
    INDEX 01 00:18:29
  TRACK 18 AUDIO
    TITLE "0:"
    INDEX 01 00:22:48
  TRACK 19 AUDIO
    TITLE "3:cjc004_2059"
    INDEX 01 00:23:26
  TRACK 20 AUDIO
    TITLE "0:"
    INDEX 01 00:24:39
  TRACK 21 AUDIO
    TITLE "4:cjc004_2060"
    INDEX 01 00:24:71
  TRACK 22 AUDIO
    TITLE "0:"
    INDEX 01 00:26:11
  TRACK 23 AUDIO
    TITLE "5:cjc004_2061"
    INDEX 01 00:26:36
  TRACK 24 AUDIO
    TITLE "0:"
    INDEX 01 00:32:33
  TRACK 25 AUDIO
    TITLE "3:cjc004_2062"
    INDEX 01 00:33:17
  TRACK 26 AUDIO
    TITLE "0:"
    INDEX 01 00:34:24
  TRACK 27 AUDIO
    TITLE "4:cjc004_2063"
    INDEX 01 00:34:59
  TRACK 28 AUDIO
    TITLE "0:"
    INDEX 01 00:36:40
  TRACK 29 AUDIO
    TITLE "5:cjc004_2064"
    INDEX 01 00:36:68
  TRACK 30 AUDIO
    TITLE "0:"
    INDEX 01 00:42:02
  TRACK 31 AUDIO
    TITLE "3:cjc004_2065"
    INDEX 01 00:42:53
  TRACK 32 AUDIO
    TITLE "0:"
    INDEX 01 00:43:60
  TRACK 33 AUDIO
    TITLE "4:cjc004_2066"
    INDEX 01 00:44:14
  TRACK 34 AUDIO
    TITLE "0:"
    INDEX 01 00:45:26
  TRACK 35 AUDIO
    TITLE "5:cjc004_2067"
    INDEX 01 00:45:49
  TRACK 36 AUDIO
    TITLE "0:"
    INDEX 01 00:49:70
  TRACK 37 AUDIO
    TITLE "3:cjc004_2068"
    INDEX 01 00:50:44
  TRACK 38 AUDIO
    TITLE "0:"
    INDEX 01 00:51:63
  TRACK 39 AUDIO
    TITLE "4:cjc004_2069"
    INDEX 01 00:52:14
  TRACK 40 AUDIO
    TITLE "0:"
    INDEX 01 00:53:27
  TRACK 41 AUDIO
    TITLE "5:cjc004_2070"
    INDEX 01 00:53:53
  TRACK 42 AUDIO
    TITLE "0:"
    INDEX 01 00:59:43
  TRACK 43 AUDIO
    TITLE "3:cjc004_2071"
    INDEX 01 01:00:21
  TRACK 44 AUDIO
    TITLE "0:"
    INDEX 01 01:01:36
  TRACK 45 AUDIO
    TITLE "4:cjc004_2072"
    INDEX 01 01:01:62
  TRACK 46 AUDIO
    TITLE "0:"
    INDEX 01 01:03:08
  TRACK 47 AUDIO
    TITLE "5:cjc004_2073"
    INDEX 01 01:03:33
  TRACK 48 AUDIO
    TITLE "0:"
    INDEX 01 01:09:36
  TRACK 49 AUDIO
    TITLE "3:cjc004_2074"
    INDEX 01 01:10:16
  TRACK 50 AUDIO
    TITLE "0:"
    INDEX 01 01:11:41
  TRACK 51 AUDIO
    TITLE "4:cjc004_2075"
    INDEX 01 01:11:72
  TRACK 52 AUDIO
    TITLE "0:"
    INDEX 01 01:12:66
  TRACK 53 AUDIO
    TITLE "5:cjc004_2076"
    INDEX 01 01:13:14
  TRACK 54 AUDIO
    TITLE "0:"
    INDEX 01 01:17:69
  TRACK 55 AUDIO
    TITLE "3:cjc004_2077"
    INDEX 01 01:18:51
  TRACK 56 AUDIO
    TITLE "0:"
    INDEX 01 01:19:72
  TRACK 57 AUDIO
    TITLE "4:cjc004_2078"
    INDEX 01 01:20:26
  TRACK 58 AUDIO
    TITLE "0:"
    INDEX 01 01:21:53
  TRACK 59 AUDIO
    TITLE "5:cjc004_2079"
    INDEX 01 01:21:72
  TRACK 60 AUDIO
    TITLE "0:"
    INDEX 01 01:26:66
